<?xml version="1.0" encoding="UTF-8" standalone="no"?>
<!DOCTYPE svg PUBLIC "-//W3C//DTD SVG 1.1//EN" "http://www.w3.org/Graphics/SVG/1.1/DTD/svg11.dtd">
<svg xmlns="http://www.w3.org/2000/svg" xmlns:dc="http://purl.org/dc/elements/1.1/" version="1.1" xmlns:xl="http://www.w3.org/1999/xlink" viewBox="255 1927 1446 1447" width="1446" height="1447">
  <defs/>
  <metadata> Produced by OmniGraffle 7.18.5\n2021-02-06 16:27:22 +0000</metadata>
  <g id="jgp_ai_white_bg" fill="none" stroke-dasharray="none" fill-opacity="1" stroke-opacity="1" stroke="none">
    <title>jgp.ai white bg</title>
    <g id="jgp_ai_white_bg_Layer_1">
      <title>Layer 1</title>
      <g id="Graphic_40">
        <rect x="255.1181" y="1927.559" width="1445.6693" height="1445.6693" fill="white"/>
      </g>
    </g>
    <g id="jgp_ai_white_bg_Layer_2">
      <title>Layer 2</title>
      <g id="Group_53">
        <g id="Graphic_30">
          <rect x="1048.8192" y="2125.9842" width="113.38583" height="1020.4724" fill="#521b93"/>
        </g>
        <g id="Graphic_25">
          <path d="M 954.0523 2192.4044 C 865.4925 2103.8442 721.90885 2103.8442 633.3491 2192.4044 C 544.78885 2280.9642 544.78885 2424.5478 633.3491 2513.1076 C 721.90885 2601.6678 865.4925 2601.6678 954.0523 2513.1076 C 1042.6125 2424.5478 1042.6125 2280.9642 954.0523 2192.4044 M 873.8765 2272.5802 C 918.1566 2316.86 918.1566 2388.652 873.8765 2432.9318 C 829.5966 2477.212 757.8048 2477.212 713.5249 2432.9318 C 669.24476 2388.652 669.24476 2316.86 713.5249 2272.5802 C 757.8048 2228.3 829.5966 2228.3 873.8765 2272.5802" fill="#521b93"/>
        </g>
        <g id="Graphic_31">
          <path d="M 1435.9421 2192.4044 C 1347.3824 2103.8442 1203.7987 2103.8442 1115.239 2192.4044 C 1026.6787 2280.9642 1026.6787 2424.5478 1115.239 2513.1076 C 1203.7987 2601.6678 1347.3824 2601.6678 1435.9421 2513.1076 C 1524.5024 2424.5478 1524.5024 2280.9642 1435.9421 2192.4044 M 1355.7663 2272.5802 C 1400.0465 2316.86 1400.0465 2388.652 1355.7663 2432.9318 C 1311.4865 2477.212 1239.6946 2477.212 1195.4147 2432.9318 C 1151.1346 2388.652 1151.1346 2316.86 1195.4147 2272.5802 C 1239.6946 2228.3 1311.4865 2228.3 1355.7663 2272.5802" fill="#531b93"/>
        </g>
        <g id="Graphic_52">
          <circle cx="481.88976" cy="2040.9449" r="56.6930036451332" fill="#521b93"/>
        </g>
        <g id="Graphic_71">
          <path d="M 907.0866 2664.567 C 907.0865 2693.5848 896.0165 2722.6027 873.8765 2744.7426 C 829.5966 2789.0227 757.8048 2789.0227 713.5249 2744.7426 C 713.4061 2744.624 713.2877 2744.505 713.1696 2744.3858 L 632.99345 2824.562 C 633.1118 2824.681 633.2304 2824.7997 633.3491 2824.9184 C 721.90885 2913.4786 865.4925 2913.4786 954.0523 2824.9184 C 998.3323 2780.6385 1020.4724 2722.6027 1020.4724 2664.567 L 1020.4724 2125.9842 L 907.0866 2125.9842 Z" fill="#521b93"/>
        </g>
        <g id="Graphic_100">
          <path d="M 425.19685 2664.567 L 538.5827 2664.567 L 538.5827 2125.9842 L 425.19685 2125.9842 Z M 425.5186 2664.567 C 425.51864 2693.585 414.4486 2722.603 392.30853 2744.7428 C 370.16856 2766.883 341.1506 2777.953 312.1326 2777.953 L 312.1326 2891.3388 C 370.1685 2891.3388 428.2044 2869.1988 472.4843 2824.9186 C 516.7644 2780.6388 538.90447 2722.603 538.9045 2664.567 Z M 312.1326 2437.7955 L 312.45444 2437.7955 C 312.23997 2437.7952 312.0255 2437.7952 311.81102 2437.7955 Z" fill="#521b93"/>
        </g>
      </g>
      <g id="Graphic_57">
        <path d="M 878.7402 3032.758 C 878.7399 3032.9666 878.7399 3033.175 878.7402 3033.3836 Z M 1502.3622 3033.3836 C 1502.3624 3033.175 1502.3624 3032.9666 1502.3622 3032.758 Z M 1481.1003 2919.685 C 1465.8977 2880.668 1442.5424 2844.095 1411.0346 2812.5874 C 1289.265 2690.817 1091.8374 2690.817 970.0677 2812.5874 C 938.5599 2844.095 915.2047 2880.668 900.002 2919.685 Z" fill="white"/>
      </g>
      <g id="Group_54">
        <g id="Graphic_24">
          <circle cx="878.7402" cy="3259.8425" r="56.6930036451332" fill="#212121"/>
        </g>
        <g id="Graphic_35">
          <rect x="1530.7087" y="2749.6063" width="113.38583" height="566.9291" fill="#212121"/>
        </g>
        <g id="Graphic_37">
          <path d="M 1390.9907 2832.6314 C 1501.691 2943.331 1501.691 3122.8106 1390.9907 3233.5103 C 1280.291 3344.2106 1100.8114 3344.2106 990.1117 3233.5103 C 879.4114 3122.8106 879.4114 2943.331 990.1117 2832.6314 C 1100.8114 2721.931 1280.291 2721.931 1390.9907 2832.6314" fill="#212121"/>
        </g>
        <g id="Graphic_34">
          <rect x="1360.6299" y="2749.6063" width="113.38583" height="566.9291" fill="#212121"/>
        </g>
        <g id="Graphic_51">
          <circle cx="1587.4016" cy="2664.567" r="56.6930036451332" fill="#212121"/>
        </g>
      </g>
      <g id="Graphic_38">
        <circle cx="1190.5512" cy="3033.071" r="170.079010935399" fill="white"/>
      </g>
    </g>
  </g>
</svg>
